<?xml version="1.0" encoding="UTF-8"?>
<svg width="1186px" height="160px" viewBox="0 0 1186 160" version="1.1" xmlns="http://www.w3.org/2000/svg" xmlns:xlink="http://www.w3.org/1999/xlink">
    <title>final</title>
    <g id="页面-1" stroke="none" stroke-width="1" fill="none" fill-rule="evenodd">
        <g id="final" fill="#000000">
            <path d="M319.995588,0 C325.361001,0 330.695571,0.0330129266 335.996227,0.0982706107 C166.699974,2.18237063 31.9995588,37.1585101 31.9995588,80 C31.9995588,122.84149 166.699974,157.817629 335.995474,159.901741 C330.695571,159.966987 325.361001,160 319.995588,160 C143.266905,160 -1.13686838e-13,124.18278 -1.13686838e-13,80 C-1.13686838e-13,35.81722 143.266905,0 319.995588,0 Z" id="椭圆形-2"></path>
            <path d="M383.996338,0 C389.361751,0 394.696321,0.0330129266 399.996977,0.0982706107 C230.700724,2.18237063 96.0003088,37.1585101 96.0003088,80 C96.0003088,122.84149 230.700724,157.817629 399.996224,159.901741 C394.696321,159.966987 389.361751,160 383.996338,160 C207.267655,160 64.00075,124.18278 64.00075,80 C64.00075,35.81722 207.267655,0 383.996338,0 Z" id="椭圆形-3"></path>
            <path d="M447.997088,0 C453.362501,0 458.697071,0.0330129266 463.997727,0.0982706107 C294.701474,2.18237063 160.001059,37.1585101 160.001059,80 C160.001059,122.84149 294.701474,157.817629 463.996974,159.901741 C458.697071,159.966987 453.362501,160 447.997088,160 C271.268405,160 128.0015,124.18278 128.0015,80 C128.0015,35.81722 271.268405,0 447.997088,0 Z" id="椭圆形-4"></path>
            <path d="M511.997838,0 C517.363251,0 522.697821,0.0330129266 527.998477,0.0982706107 C358.702224,2.18237063 224.001809,37.1585101 224.001809,80 C224.001809,122.84149 358.702224,157.817629 527.997724,159.901741 C522.697821,159.966987 517.363251,160 511.997838,160 C335.269155,160 192.00225,124.18278 192.00225,80 C192.00225,35.81722 335.269155,0 511.997838,0 Z" id="椭圆形-5"></path>
            <path d="M977.995588,0 C983.361001,0 988.695571,0.0330129266 993.996227,0.0982706107 C824.699974,2.18237063 689.999559,37.1585101 689.999559,80 C689.999559,122.84149 824.699974,157.817629 993.995474,159.901741 C988.695571,159.966987 983.361001,160 977.995588,160 C801.266905,160 658,124.18278 658,80 C658,35.81722 801.266905,0 977.995588,0 Z" id="椭圆形-2" transform="translate(825.998500, 80.000000) rotate(180.000000) translate(-825.998500, -80.000000) "></path>
            <path d="M1041.99634,0 C1047.36175,0 1052.69632,0.0330129266 1057.99698,0.0982706107 C888.700724,2.18237063 754.000309,37.1585101 754.000309,80 C754.000309,122.84149 888.700724,157.817629 1057.99622,159.901741 C1052.69632,159.966987 1047.36175,160 1041.99634,160 C865.267655,160 722.00075,124.18278 722.00075,80 C722.00075,35.81722 865.267655,0 1041.99634,0 Z" id="椭圆形-3" transform="translate(889.999250, 80.000000) rotate(180.000000) translate(-889.999250, -80.000000) "></path>
            <path d="M1105.99709,0 C1111.3625,0 1116.69707,0.0330129266 1121.99773,0.0982706107 C952.701474,2.18237063 818.001059,37.1585101 818.001059,80 C818.001059,122.84149 952.701474,157.817629 1121.99697,159.901741 C1116.69707,159.966987 1111.3625,160 1105.99709,160 C929.268405,160 786.0015,124.18278 786.0015,80 C786.0015,35.81722 929.268405,0 1105.99709,0 Z" id="椭圆形-4" transform="translate(954.000000, 80.000000) rotate(180.000000) translate(-954.000000, -80.000000) "></path>
            <path d="M1169.99784,0 C1175.36325,0 1180.69782,0.0330129266 1185.99848,0.0982706107 C1016.70222,2.18237063 882.001809,37.1585101 882.001809,80 C882.001809,122.84149 1016.70222,157.817629 1185.99772,159.901741 C1180.69782,159.966987 1175.36325,160 1169.99784,160 C993.269155,160 850.00225,124.18278 850.00225,80 C850.00225,35.81722 993.269155,0 1169.99784,0 Z" id="椭圆形-5" transform="translate(1018.000750, 80.000000) rotate(180.000000) translate(-1018.000750, -80.000000) "></path>
            <path d="M575.989765,0 C581.354163,0 586.687731,0.0330004481 591.987398,0.0982336107 C422.689673,2.1820897 287.988176,37.1583381 287.988176,80 C287.988176,122.841662 422.689673,157.81791 591.986131,159.901766 C586.687731,159.967 581.354163,160 575.989765,160 C399.261081,160 255.994176,124.18278 255.994176,80 C255.994176,35.81722 399.261081,0 575.989765,0 Z M607.983765,0 C784.712448,0 927.979353,35.81722 927.979353,80 C927.979353,124.18278 784.712448,160 607.983765,160 C602.619366,160 597.285798,159.967 591.986131,159.901766 C761.283856,157.81791 895.985353,122.841662 895.985353,80 C895.985353,37.1583381 761.283856,2.1820897 591.987398,0.0982336107 C597.285798,0.0330004481 602.619366,0 607.983765,0 Z" id="椭圆形-7"></path>
        </g>
    </g>
</svg>