<?xml version="1.0" encoding="UTF-8"?>
<svg width="555px" height="555px" viewBox="0 0 555 555" version="1.1" xmlns="http://www.w3.org/2000/svg" xmlns:xlink="http://www.w3.org/1999/xlink">
    <title>􀍖</title>
    <g id="页面-1" stroke="none" stroke-width="1" fill="none" fill-rule="evenodd">
        <g id="􀍖" transform="translate(0.255859, 60.120514)" fill="#000000" fill-rule="nonzero">
            <path d="M277.442932,240.692139 C287.465413,240.692139 297.887166,235.281626 308.708191,224.460602 L521.881104,12.3214722 C512.148539,4.10715739 495.3626,0 471.523285,0 L77.4536133,0 C56.1116536,0 41.015625,3.88463338 32.1655273,11.6539001 L246.173859,224.460602 C256.936391,235.281626 267.359416,240.692139 277.442932,240.692139 Z M6.87789917,391.166687 L184.043884,215.255737 L7.62557983,41.1224365 C2.54185994,49.5122274 0,63.0900065 0,81.8557739 L0,351.852417 C0,369.979858 2.29263306,383.084615 6.87789917,391.166687 Z M82.6911926,433.876038 L476.760864,433.876038 C498.756409,433.876038 514.493306,429.659526 523.971558,421.226501 L343.460083,241.809845 L329.204559,256.233215 C312.404633,272.425334 295.150757,280.521393 277.442932,280.521393 C259.62321,280.521393 242.342631,272.425334 225.601196,256.233215 L211.25412,241.962433 L31.0783386,421.062469 C41.4390564,429.604848 58.6433411,433.876038 82.6911926,433.876038 Z M547.580719,390.99884 C552.054087,382.807414 554.290771,369.758606 554.290771,351.852417 L554.290771,81.8557739 C554.290771,63.2019043 551.80486,49.7907003 546.833038,41.6221619 L370.670319,215.255737 L547.580719,390.99884 Z" id="形状"></path>
        </g>
    </g>
</svg>